<svg xmlns="http://www.w3.org/2000/svg" width="144" height="144" viewBox="0 0 2290.67 2290.67" shape-rendering="geometricPrecision" text-rendering="geometricPrecision" image-rendering="optimizeQuality" fill-rule="evenodd" clip-rule="evenodd"><defs><style>.fil1{fill:#ebecec;fill-rule:nonzero}</style></defs><g id="Layer_x0020_1"><path fill="none" d="M0 0h2290.67v2290.67H0z"/><g id="_2813888333104"><path class="fil1" d="M1548.8 976.2c-9.92 19.4-16.8 35.88-20.63 49.38-3.77 13.49-5.68 26.25-5.68 38.34 0 11.11 2.44 27.63 7.34 49.64 28.48-31.66 48.63-59.07 60.53-82.14 11.83-23.05 17.78-41.45 17.78-55.13 0-4.03-1.45-8.55-4.36-13.61-3.17-5.3-4.76-9.57-4.76-12.67 0-3.31 1.13-6.67 3.44-9.99 2.32-3.32 5.09-5.56 8.33-6.69 4.23-1.49 7.6-.82 10.18 1.91 2.57 2.8 3.84 8.57 3.84 17.36 0 27.5-9.72 57.66-29.21 90.54-23.86 40.35-54.06 75.58-90.68 105.72-.92-5.75-2.7-14.84-5.41-27.18-5.29-24.91-7.94-42.63-7.94-53.06 0-13.82 3.24-28.36 9.66-43.62 6.48-15.3 15.99-29.86 28.62-43.87-16.89 6.21-44.09 8.3-60.98 12.28v-9.72c1.9-.54 3.78-1.02 5.6-1.47 19.63-4.89 41.96-8.15 62.31-15.02 8.27-6.6 13.65-9.98 15.67-11.04 4.18-2.2 6.12-5.72 13.58-6.75 7.46-1.02 14.33 9.87 5.55 15.46-9.03 5.75-7.5-2-22.76 11.33zm164.94-80.57c11.49-4.03 20.42-4.91 26.69-2.62 6.27 2.3 9.38 6.37 9.38 12.19 0 3.5-1.32 7.07-3.97 10.57-2.64 3.51-5.81 5.95-9.58 7.26-2.44.85-4.56 1.07-6.41.59-1.78-.49-4.36-2.36-7.73-5.55-6.35-6.24-12.56-8.28-18.77-6.11-5.28 1.85-9.97 5.54-14.07 11.01-4.03 5.43-6.08 11.25-6.08 17.27 0 5.28 1.25 10 3.83 14.05 2.58 4.06 9.12 9.76 19.56 17.13 14.27 10.2 21.41 22.1 21.41 35.78 0 13.62-5.82 27.62-17.45 41.94-11.63 14.32-26.57 24.64-44.88 31.05-15.4 5.4-26.83 6.3-34.29 2.7-7.47-3.67-11.23-10-11.23-19.12 0-4.5 1.38-8.69 4.22-12.66 2.85-3.96 6.28-6.62 10.45-8.08 3.57-1.24 6.67-1.15 9.25.32 2.58 1.48 3.83 3.82 3.83 7.06 0 1.32-.06 2.99-.26 5.11-.07 1.68-.13 3.16-.13 4.29 0 4.29 1.78 7.23 5.42 8.93 3.51 1.74 8.33 1.5 14.41-.62 6.94-2.43 13.08-5.78 18.44-10.03 5.28-4.23 9.38-9.31 12.36-15.16 2.97-5.86 4.49-11.22 4.49-15.99 0-4.63-1.39-8.75-4.16-12.49-2.84-3.63-9.05-9.12-18.84-16.4-13.48-10.2-20.22-22.25-20.22-36 0-12.62 5.08-25.51 15.33-38.54 10.24-13.04 23.2-22.34 39-27.88z"/><path class="fil1" d="M1538.52 977.57c-3.78 7.38-23.95 10.45-18.97 4.92-22.74 8.36-54.01 11.19-63.79 19.27-6.96 5.74-16.82 12.26-16.82 16.76 0 1.85 5.27 9.49 6.97 13.12 1.19 2.54 1.71 4.88 1.71 7 0 2.05-.88 4.21-2.57 6.38-1.77 2.26-3.31 3.48-5.87 4.36-3.34 1.16-6.78 1.11-9.07-.9-2.3-2-3.51-5.45-3.51-10.2 0-7.6 3.2-25.99 8.68-33.52 7.21-9.93 28.85-19.8 46.48-25.17 19.94-6.07 24.17-4.23 44.73-11.03 8.26-6.6 13.65-9.98 15.66-11.04 4.18-2.19 10.4-6.7 17.86-7.73 7.46-1.02 19.25 3.31 13.2 13.8-5.54 9.61-19.44.63-34.7 13.97z"/><path class="fil1" d="M1406.67 1053.99c1.8-5.89 12.66-9.28 17.13-9.66 5.89-.5 12.96 2.48 11.92 16.97-1.39 19.39-9.6 46.69-29.74 76.54-20.15 29.86-41.44 48.69-63.98 56.59-13.81 4.84-24.97 4.26-33.43-1.83-8.46-6.1-12.69-16.96-12.69-32.57 0-27.09 7.7-54.9 23.27-83.29 6.87-12.52 15.6-27.54 23.91-37.77 2.33-2.86 16.31-16.24 25.58-20.26 9.36-4.05 14.7-6.73 24.83-5.77 13.09 1.24 18.4 5.22 22.38 8.51 6.46 5.32 8.49 11.08 7.53 14.95-1.68 6.81-2.47 7.95-8.53 10.42-9.78 4-20.78-7.14-37.82-8.87-13.89-1.42-29.81 6.15-35.27 18.64-8.72 19.91-13.37 49.62-13.37 77.17 0 16.79 3.17 28.89 9.45 36.4 4.63 5.45 10.84 6.85 18.57 4.14 10.77-3.78 20.62-13.97 29.54-30.51 11.3-21.34 13.97-45.15 16.98-70.78 1.17-9.96 2.17-13.88 3.75-19.03z"/><path class="fil1" d="M1103.89 1220.28c.55-3.52-9.67.55-9.13-2.98 41.27-96.39 42.81-99.15 52.65-107.78 9.84-8.6 20.34-11.08 27.35-13.53 2.76-.97 4.89-1.12 6.48-.55 1.52.57 2.31 1.64 2.31 3.23 0 1.12-.29 3.29-.93 6.4l-6.11 29.56c13.09-19.19 29.54-38.57 49.37-58.22 10.51-10.22 19.16-16.56 25.97-18.94 5.03-1.76 8.99-1.56 11.77.64 2.84 2.17 4.29 6.29 4.29 12.23 0 4.03-.59 8.74-1.78 14.18-2.05 9.11-7.4 29.3-16.12 60.51-8.2 29.17-12.29 48.12-12.29 56.77 0 2.71.4 4.62 1.12 5.69.8 1.11 1.92 1.36 3.31.88 3.76-1.32 9.67-7.02 17.64-17.09 5.69-7.19 42.25-74.48 50.57-96.69l-3.61 33.75c-29.21 59.05-47.01 83.49-59.68 95.9-8.1 7.92-17.35 9.51-22.62 11.35-4.88 1.71-8.65 1.25-11.36-1.37-2.72-2.62-4.04-7.97-4.04-16.03 0-11.49 7.21-42.57 21.55-93.33 4.43-17.81 6.61-28.02 6.61-30.73 0-3.83-2.38-4.91-7.14-3.25-5.16 1.81-11.83 6.85-19.95 15.12-12.16 12.26-22.32 25.16-30.4 38.87-5.19 8.79-9.42 21.48-12.96 37.85l-16.96 78.44-28.82 10.1c5.42-21.27 11.26-46.82 15.38-65.86l11.04-51.06c.68-3.14.99-5.31.99-6.56 0-3.37.43-3.59-.75-5.95-.99-1.98-5.59-.13-8.35 4.74-9.91 17.47-14.3 23.84-35.37 73.68z"/><path class="fil1" d="M1073.88 1175.47l-1.06 3.91c-5.79 21.48-6.6 28.23-11.76 55.46-2.8 14.8-4.23 24.22-4.23 28.18 0 3.97 1.59 5.39 4.82 4.26 1.99-.7 5.99-2.58 9.72-7.38 11.39-14.65 17.7-29.02 23.39-42.6 3.76-8.96 7.02-15.94 12.21-28.48l8.21 2.4c-18.37 47.29-22.61 59.73-39.45 87.56-6.11 10.12-13.37 14.26-22.3 16.09-31.8 6.54-21.36-24.13-19.88-35.39-11.1 17.18-24.38 33.2-39.72 48.09-9.38 9.17-18.04 15.17-25.91 17.93-7.53 2.65-13.22 2-17.25-1.89-5.42-5.24-8.13-13.61-8.13-25.11 0-13.68 3.64-30.21 10.91-49.54 7.34-19.37 17.08-38.03 29.34-56.02 12.24-17.94 29-39.45 42.55-50.67 10.5-11.3 30.19-11.93 37.64-6.4 17.89 13.3 9.14 30.29 2.78 33.28-13.59 6.41-17.85-7.99-34.71-9.88-13.6-1.53-20.57 8.59-25.49 13.97-8.62 9.4-15.17 27.93-22.57 47.11-7.4 19.19-11.1 37.07-11.1 53.59 0 8.79 1.45 14.56 4.42 17.42 2.98 2.84 6.88 3.4 11.64 1.73 8.86-3.1 18.4-11.26 28.55-24.4 10.18-13.19 16.64-29.98 22.41-49.42l5.42-18.27c5.9-21.08 11.42-27.9 17.6-30.67 6.57-2.95 13.59-1.02 11.93 5.15z"/><path class="fil1" d="M820.64 1186.78l2.31-9.52c18.64-8.39 34.5-16.59 47.71-24.59-3.04 10.05-6.28 22.89-9.78 38.59l-14.54 59.48 17.78-5.83c8.25-2.5 17.24-7.7 26.96-15.6 9.71-7.91 18.43-18.82 26.1-32.74 7.67-13.99 11.5-27.49 11.5-40.52 0-12.95-4.69-21.48-14.01-25.82-9.39-4.23-23.66-3.01-42.89 3.73-21.94 7.69-43.42 20.63-64.43 38.9-21.08 18.23-37.28 37.84-48.71 58.77-11.43 20.92-17.12 39.64-17.12 56.09 0 8.13 1.45 14.69 4.43 19.6 2.98 4.96 8.26 8.99 15.86 12.15 6.28 2.42 9.46 5.81 9.46 10.17 0 2.85-1.06 5.59-3.11 8.22-2.05 2.65-4.5 4.49-7.34 5.49-7.67 2.68-14.99.04-22.14-7.91-7.07-7.97-10.64-19.92-10.64-35.86 0-29.27 11.24-59.84 33.7-91.84 29.41-41.95 68.92-71.67 118.56-89.05 18.84-6.61 34.3-9.58 46.33-8.91 12.1.66 21.15 4.15 27.16 10.58 6.01 6.35 8.99 14.56 8.99 24.48 0 12.55-4.24 26.46-12.7 41.59-8.46 15.12-20.88 29.32-37.34 42.55-16.39 13.22-34.7 23.33-54.78 30.37-3.11 1.08-7.93 2.64-14.54 4.7l-15.67 65.69c-2.5 11.06-5.35 22.17-8.46 33.16 10.05-1.14 29.75-9.05 36.87-12.44 18.33-8.72 70.18-55.55 101.74-95.85l-2.8 22.37c-41.12 45.63-83.24 82.51-107 88.91-6.83 1.83-16.52 5.13-29.41 8.25-10.31 2.36-18.71 4.64-25.18 6.91-12.49 4.38-25.32 10.32-38.47 17.84l2.32-11.12c13.41-6.88 22.53-13.24 27.42-19.06 7.01-8.28 12.69-21.9 17.06-40.87l29.21-126.15c1.32-5.75 1.98-9.76 1.98-11.87 0-2.05-.85-3.53-2.51-4.54-1.72-.99-3.7-1.08-6.01-.27-.93.32-2.25.93-3.9 1.76zm-254.3-100.47l15.7-5.74-5.8 25.27 21.91-7.74-1.93 9.2-22.17 8.04-9.34 38.8c-2.87 11.96-4.58 20-4.58 24.23 0 1.94.4 3.2 1.21 3.76.84.56 1.94.61 3.37.1 2.25-.78 5.64-3.29 10.21-7.54 5.99-5.57 41.32-43.95 46.76-50.29l-2.37 10.24c-17.93 21.07-49.32 53.82-54.63 58.35-5.28 4.51-9.54 7.35-12.77 8.49-2.64.92-4.74.7-6.28-.7-1.55-1.41-2.32-4.26-2.32-8.63 0-5.18 1.36-13.51 4.08-25.07l10.91-46.49-17.45 6.11 2.21-9.63 17.42-5.74 5.86-25.04zm144.13 7.91l-1.32 14.63c-9.19 16.46-26.63 38.15-33.58 44.89-4.74 4.58-8.67 7.46-11.75 8.53-2.5.88-4.56.56-6.1-.91-1.55-1.48-2.31-4.33-2.31-8.6 0-2.86.59-7.25 1.76-13.13 1.17-5.92 4.52-18.84 10.02-38.87 2.43-9.74 3.64-15.33 3.64-16.83 0-2.43-1.21-3.22-3.67-2.36-3.01 1.06-6.8 3.88-11.31 8.48-6.32 6.37-11.93 13.65-16.82 21.79-3.04 5.23-5.5 12.25-7.34 21.05l-8.52 40.54-16 5.61c3.46-13.77 6.1-24.94 7.97-33.52l15.79-74.56c2.87-13.74 6.64-24.87 11.35-33.38 4.7-8.51 10.83-16.17 18.4-22.9 7.56-6.76 15.01-11.43 22.43-14.03 3.08-1.08 5.5-1.15 7.3-.24 1.8.91 2.68 2.54 2.68 4.9 0 5.86-4.82 8.12-9.43 9.72-1.67.58-6.97 2.4-9.69 2.94-6.15 1.24-7.76 2.26-10.14 3.09-3.31 1.15-5.99 3.43-8.08 6.83-2.05 3.37-4.22 10.38-6.42 21.02l-12.01 57.27c8.52-11.99 17.81-22.8 27.83-32.48 5.87-5.73 10.62-9.23 14.17-10.47 2.83-.99 5-.91 6.58.19s2.34 3.15 2.34 6.13c0 2.42-.26 4.97-.84 7.59-.92 4.56-3.08 12.98-6.5 25.31-4.62 16.97-7.35 27.46-8.15 31.49-.84 4-1.24 7.49-1.24 10.42 0 1.18.22 1.98.58 2.45.41.44.99.53 1.76.26 1.73-.61 4.9-3.81 9.63-9.51 2.6-3.14 18.04-23.92 27.01-43.32zm49.58 4.14l3.52 3.4c-17.54 22.89-32.57 36.52-45.12 40.93-5.07 1.77-8.96 1.41-11.65-1.06-2.68-2.51-4.04-7.55-4.04-15.11 0-15.31 4.67-32.14 14-50.56 10.46-20.89 22.94-33.89 37.52-39 5.07-1.77 8.95-1.86 11.64-.27 2.68 1.61 4.03 4.61 4.03 9.05 0 4.66-1.61 9.78-4.84 15.43-3.23 5.65-9 12.37-17.3 20.12-4.19 3.82-13.07 11.18-26.69 22.13-.63 4.07-.96 7.86-.96 11.39 0 5.07.81 8.35 2.42 9.76 1.62 1.46 3.97 1.63 7.06.55 2.93-1.03 6.13-3 9.65-5.89 4.73-3.85 11.63-10.83 20.75-20.86zm-37.63-2.24c11.53-9.17 20.18-17.75 25.98-25.69 3.93-5.53 5.92-10.34 5.92-14.42 0-3.04-.81-5.22-2.42-6.49-1.61-1.24-3.71-1.41-6.28-.51-2.65.93-5.22 2.81-7.72 5.71-3.37 3.82-6.2 8.81-8.48 14.94-3.3 9.01-5.66 17.84-7 26.46z"/></g></g></svg>